<?xml version="1.0" encoding="utf-8"?>
<svg width="128" height="128" viewBox="0 0 32 32" version="1.1" xmlns="http://www.w3.org/2000/svg">
  <defs>
  <style>
    path {
    fill: #007bff;
    }
    @media (prefers-color-scheme: dark) {
      path {
        fill: #ffffff;
      }
    }
  </style>
  </defs>
  <path d="M25.307 16c2.888-4.481 3.597-8.662 1.476-10.783-2.124-2.123-6.32-1.408-10.814 1.497-1.005-0.675-2.157-1.302-3.366-1.821l-0.139-0.053c-3.162-1.267-5.737-1.134-7.247 0.377-1.509 1.509-1.643 4.083-0.377 7.247 0.572 1.349 1.199 2.501 1.923 3.583l-0.049-0.078c-2.905 4.494-3.622 8.691-1.497 10.816 0.816 0.766 1.917 1.236 3.127 1.236 0.079 0 0.158-0.002 0.236-0.006l-0.011 0c2.811-0.217 5.356-1.198 7.473-2.734l-0.042 0.029c2.075 1.507 4.621 2.488 7.382 2.702l0.050 0.003c0.066 0.003 0.144 0.005 0.222 0.005 1.212 0 2.315-0.471 3.134-1.24l-0.002 0.002c2.119-2.12 1.41-6.302-1.478-10.784zM23.43 6.464c0.050-0.004 0.107-0.006 0.166-0.006 0.544 0 1.041 0.199 1.423 0.529l-0.003-0.002c1.011 1.011 0.517 3.67-1.301 6.799-0.844-1.063-1.691-2.011-2.588-2.909l0 0c-0.901-0.891-1.857-1.733-2.86-2.517l-0.072-0.054c1.484-0.988 3.266-1.648 5.187-1.835l0.047-0.004zM12.642 12.642c1.020-1.020 2.114-1.966 3.273-2.829l0.079-0.056c1.243 0.92 2.341 1.867 3.365 2.886l0.001-0.001c1.017 1.021 1.96 2.117 2.82 3.278l0.056 0.080c-0.917 1.242-1.861 2.338-2.879 3.361l0.001-0.001c-1.020 1.017-2.116 1.96-3.277 2.82l-0.080 0.056c-1.242-0.917-2.338-1.861-3.36-2.879l0.001 0.001c-1.016-1.021-1.96-2.116-2.822-3.275l-0.057-0.080c0.917-1.242 1.861-2.339 2.879-3.362l-0.001 0.001zM7.161 11.535c-0.846-2.114-0.912-3.815-0.177-4.551 0.378-0.32 0.87-0.515 1.409-0.515 0.061 0 0.121 0.003 0.181 0.007l-0.008-0.001c1.083 0.048 2.097 0.295 3.022 0.706l-0.053-0.021c0.882 0.368 1.62 0.745 2.327 1.17l-0.079-0.044c-2.057 1.634-3.862 3.439-5.443 5.428l-0.052 0.068c-0.381-0.627-0.758-1.366-1.082-2.132l-0.043-0.116zM6.984 25.018c-1.013-1.015-0.513-3.686 1.317-6.824 0.839 1.075 1.681 2.031 2.576 2.935l-0.003-0.003c0.899 0.897 1.849 1.743 2.846 2.534l0.069 0.053c-3.129 1.82-5.79 2.314-6.805 1.306zM25.018 25.016c-1.009 1.013-3.673 0.518-6.806-1.304 1.065-0.843 2.015-1.689 2.914-2.585l-0.001 0.001c0.898-0.898 1.745-1.847 2.537-2.843l0.053-0.068c1.819 3.129 2.313 5.788 1.303 6.8zM16 19.25c1.795 0 3.25-1.455 3.25-3.25s-1.455-3.25-3.25-3.25c-1.795 0-3.25 1.455-3.25 3.25v0c0.002 1.794 1.456 3.248 3.25 3.25h0zM16 15.25c0.414 0 0.75 0.336 0.75 0.75s-0.336 0.75-0.75 0.75c-0.414 0-0.75-0.336-0.75-0.75v0c0.001-0.414 0.336-0.749 0.75-0.75h0z"></path>
</svg>